<svg width="current" height="current" viewBox="0 0 24 24" fill="none" xmlns="http://www.w3.org/2000/svg">
<path d="M12 6.0534V20.3025M5 8.25467C6.26578 8.4507 7.67778 8.7766 9 9.28791M5 12.2547C5.63949 12.3537 6.3163 12.4859 7 12.6584M3.99433 3.0113C6.21271 3.26198 9.19313 3.93635 11.3168 5.42448C11.725 5.71048 12.275 5.71048 12.6832 5.42448C14.8069 3.93635 17.7873 3.26198 20.0057 3.0113C21.1036 2.88724 22 3.80405 22 4.93521V16.2C22 17.3311 21.1036 18.2483 20.0057 18.3724C17.7873 18.623 14.8069 19.2974 12.6832 20.7855C12.275 21.0715 11.725 21.0715 11.3168 20.7855C9.19313 19.2974 6.21271 18.623 3.99433 18.3724C2.89642 18.2483 2 17.3311 2 16.2V4.93521C2 3.80405 2.89642 2.88724 3.99433 3.0113Z" stroke="current" stroke-width="1.5" stroke-linecap="round"/>
</svg>
